<svg xmlns="http://www.w3.org/2000/svg" viewBox="0 0 14.33 14.33"><g id="Layer_2" data-name="Layer 2"><g id="Layer_1-2" data-name="Layer 1"><path d="M1.79,14.33a1.8,1.8,0,1,1,1.27-.53h0A1.8,1.8,0,0,1,1.79,14.33Zm0-2.58a.78.78,0,0,0-.56.23.79.79,0,1,0,1.12,0A.76.76,0,0,0,1.79,11.75Z"/><path d="M5.19,11.7A2.5,2.5,0,0,1,3.38,11a2.54,2.54,0,0,1,0-3.62A2.62,2.62,0,0,1,7,7.33,2.56,2.56,0,0,1,7,11H7A2.52,2.52,0,0,1,5.19,11.7Zm0-4.12A1.55,1.55,0,0,0,3.62,9.14a1.55,1.55,0,0,0,.46,1.1,1.58,1.58,0,0,0,2.21,0h0a1.51,1.51,0,0,0,.46-1.1A1.55,1.55,0,0,0,5.19,7.58Z"/><path d="M10.22,8.21A4.1,4.1,0,1,1,13.13,7h0A4.09,4.09,0,0,1,10.22,8.21Zm0-7.21A3.07,3.07,0,0,0,8,1.91,3.1,3.1,0,0,0,12.42,6.3h0a3.09,3.09,0,0,0,.91-2.2,3,3,0,0,0-.91-2.19A3.09,3.09,0,0,0,10.22,1Z"/></g></g></svg>