<svg xmlns="http://www.w3.org/2000/svg" viewBox="0 0 10.99 9.16"><g id="Layer_2" data-name="Layer 2"><g id="Layer_1-2" data-name="Layer 1"><path d="M1.79,1.52,1.3,1a5.5,5.5,0,0,0,.31,7.44l.22.2V6.2H1A4.81,4.81,0,0,1,1.79,1.52Z"/><path d="M9.38.69,9.16.49V3H10a4.8,4.8,0,0,1-.81,4.68l.48.49A5.5,5.5,0,0,0,9.38.69Z"/><path d="M7.56,0H3.44a.69.69,0,0,0-.69.69V8.48a.68.68,0,0,0,.69.68H7.56a.67.67,0,0,0,.68-.68V.69A.68.68,0,0,0,7.56,0Zm0,8.48H6.72V7.36a.49.49,0,0,0,.49-.49V5.17a1,1,0,0,0-1-1H4.84a1.05,1.05,0,0,0-1.06,1v1.7a.49.49,0,0,0,.49.49V8.48H3.44V.69H7.56Z"/><path d="M5.5,3.85a.8.8,0,1,0-.8-.8A.8.8,0,0,0,5.5,3.85Z"/></g></g></svg>