<svg xmlns="http://www.w3.org/2000/svg" viewBox="0 0 9.16 10.99"><g id="Layer_2" data-name="Layer 2"><g id="Layer_1-2" data-name="Layer 1"><path d="M6.2,10a4.8,4.8,0,0,1-4.68-.81L1,9.69a5.5,5.5,0,0,0,7.44-.31l.2-.22H6.2Z"/><path d="M3,1a4.83,4.83,0,0,1,4.68.82l.49-.49a5.5,5.5,0,0,0-7.44.31l-.2.22H3Z"/><path d="M8.48,2.75H.69A.69.69,0,0,0,0,3.44V7.56a.68.68,0,0,0,.69.68H8.48a.67.67,0,0,0,.68-.68V3.44A.68.68,0,0,0,8.48,2.75Zm0,4.81H6.3V6.94A1.06,1.06,0,0,0,5.24,5.89H3.92A1.06,1.06,0,0,0,2.86,6.94v.62H.69V3.44H8.48Z"/><path d="M4.58,5.62a.8.8,0,1,0-.8-.8A.8.8,0,0,0,4.58,5.62Z"/></g></g></svg>