<svg xmlns="http://www.w3.org/2000/svg" viewBox="0 0 112.84 146.42"><g id="Layer_2" data-name="Layer 2"><g id="Layer_2-2" data-name="Layer 2"><path d="M107.57,92.18l5.27-3.08-2-4.92-8-5,5.3-3.66.14-4.08-1.74-3.86-4.94-2.91,7.53-6.27L99,58l.67-4.39,6.29-8.33-6.76-.7-4.49-1.62-6.13.56-1.35-3.9.6-7.14-4.94.06-1.78-5.23-7.25,6.38-2.28-4.51-4.45,2.18L64.94,22l-3.49-4.12V0h-10V19.35a56.44,56.44,0,0,0,0,112.44v14.63h10V128.83l3.38-.34L68.08,124l3.85-.81,4.56.76,3-3.16,2.81-3,2.24-3.51,1.07-4.53,8.88,3.9,5.14-1.16-.63-6,4.17-2.28,4.55-2.5-3.45-6.32ZM10,75.57A46.51,46.51,0,0,1,51.45,29.39v92.36A46.52,46.52,0,0,1,10,75.57Z"/></g></g></svg>