<svg xmlns="http://www.w3.org/2000/svg" viewBox="0 0 512 512"><g id="Layer_2" data-name="Layer 2"><g id="Layer_1-2" data-name="Layer 1"><path d="M400.77,256c0,74.77-57,136.46-129.77,144a145.68,145.68,0,0,1-15,.77c-79.82,0-144.75-64.94-144.75-144.76S176.18,111.25,256,111.25a145.68,145.68,0,0,1,15,.77C343.81,119.55,400.77,181.24,400.77,256Z"/><path d="M256,89.54a15,15,0,0,0,15-15V15a15,15,0,0,0-30,0V74.54A15,15,0,0,0,256,89.54Z"/><path d="M256,422.46a15,15,0,0,0-15,15V497a15,15,0,0,0,30,0V437.46A15,15,0,0,0,256,422.46Z"/><path d="M89.54,256a15,15,0,0,0-15-15H15a15,15,0,0,0,0,30H74.54A15,15,0,0,0,89.54,256Z"/><path d="M497,241H437.46a15,15,0,0,0,0,30H497a15,15,0,0,0,0-30Z"/><path d="M113.48,134.7a15,15,0,1,0,21.22-21.22L91.41,70.2A15,15,0,0,0,70.2,91.41Z"/><path d="M398.52,377.3a15,15,0,1,0-21.22,21.22l43.29,43.28a15,15,0,0,0,21.21-21.21Z"/><path d="M113.48,377.3,70.2,420.59A15,15,0,1,0,91.41,441.8l43.29-43.28a15,15,0,1,0-21.22-21.22Z"/><path d="M387.91,139.09a15,15,0,0,0,10.61-4.39L441.8,91.41A15,15,0,0,0,420.59,70.2L377.3,113.48a15,15,0,0,0,10.61,25.61Z"/></g></g></svg>