<svg xmlns="http://www.w3.org/2000/svg" viewBox="0 0 324.9 260.01"><g id="Layer_2" data-name="Layer 2"><g id="Layer_1-2" data-name="Layer 1"><path d="M5.86,64.81a20,20,0,0,1,0-28.29C30.31,12.07,59.75-.55,91,0c29.71.54,58.74,13.5,81.74,36.5C187.19,51,209.07,59,232.76,58.66c22.83-.38,44.51-8.65,58-22.14A20,20,0,0,1,319,64.81c-21,21-52.17,33.3-85.63,33.84l-2.26,0c-33.61,0-65.1-12.27-86.69-33.86C128.82,49.17,109.57,40.36,90.27,40c-20.13-.35-39.54,8.21-56.13,24.8A20,20,0,0,1,5.86,64.81Zm284.9,52.39c-13.49,13.48-35.17,21.76-58,22.13-23.69.37-45.57-7.68-60-22.13-23-23-52-36-81.74-36.51C59.76,80.12,30.31,92.75,5.86,117.2a20,20,0,1,0,28.28,28.28c16.59-16.59,36-25.18,56.13-24.8,19.3.35,38.55,9.16,54.19,24.8,21.59,21.59,53.08,33.86,86.69,33.86l2.26,0c33.46-.54,64.67-12.88,85.63-33.84a20,20,0,0,0-28.28-28.28Zm0,80.67c-13.49,13.48-35.17,21.76-58,22.13-23.69.38-45.57-7.68-60-22.13-23-23-52-36-81.74-36.51-31.25-.56-60.69,12.06-85.14,36.51a20,20,0,0,0,28.28,28.28c16.59-16.59,36-25.14,56.13-24.8,19.3.36,38.55,9.16,54.19,24.8C166.05,247.74,197.54,260,231.15,260c.75,0,1.51,0,2.26,0,33.46-.54,64.67-12.88,85.63-33.84a20,20,0,0,0-28.28-28.28Z"/></g></g></svg>