<svg xmlns="http://www.w3.org/2000/svg" viewBox="0 0 323.67 359.11"><defs><style>.cls-1{stroke:#000;stroke-miterlimit:10;}</style></defs><g id="Layer_2" data-name="Layer 2"><g id="Layer_2-2" data-name="Layer 2"><path class="cls-1" d="M87.17,75.61a37.56,37.56,0,1,1,37.55-37.55A37.56,37.56,0,0,1,87.17,75.61Zm100.66,43.67a37.56,37.56,0,1,0-37.55,37.55A37.56,37.56,0,0,0,187.83,119.28ZM49.61,120.5a37.56,37.56,0,1,0,37.56,37.56A37.55,37.55,0,0,0,49.61,120.5Zm236,37.56a37.56,37.56,0,1,0,37.56,37.55A37.55,37.55,0,0,0,285.61,158.06Zm-77.55,62.11a37.56,37.56,0,1,0-37.56,37.55A37.56,37.56,0,0,0,208.06,220.17Zm57.33-99.67a37.56,37.56,0,1,0-37.56-37.56A37.55,37.55,0,0,0,265.39,120.5ZM38.06,245.94A37.56,37.56,0,1,0,75.61,283.5,37.56,37.56,0,0,0,38.06,245.94Zm170,37.56a37.56,37.56,0,1,0,37.55,37.56A37.55,37.55,0,0,0,208.06,283.5Z"/></g></g></svg>