<svg xmlns="http://www.w3.org/2000/svg" viewBox="0 0 498.35 438"><g id="Layer_2" data-name="Layer 2"><g id="Capa_1" data-name="Capa 1"><path d="M323.15,59.14V29.2h29.2V0h-87.6V29.2H294V59.14a189.14,189.14,0,0,0-122,57.66H58.4V146h90.47A189.48,189.48,0,0,0,133.4,175.2H29.2v29.19h94.85a189.91,189.91,0,0,0-4.56,29.21H0v29.2H119.49a189.6,189.6,0,0,0,4.56,29.2H29.2v29.2H133.4a188.92,188.92,0,0,0,15.47,29.2H58.4v29.2H171.91A189.11,189.11,0,0,0,308.55,438c104.65,0,189.8-85.15,189.8-189.8C498.35,148.47,421,66.64,323.15,59.14Zm25.33,207.07a43.8,43.8,0,1,1-57.94-57.95l105.59-47.65Z"/></g></g></svg>